<mxfile host="65bd71144e">
    <diagram id="jRJxmqXfjZDJC-g9J_73" name="Page-1">
        <mxGraphModel dx="764" dy="629" grid="1" gridSize="10" guides="1" tooltips="1" connect="1" arrows="1" fold="1" page="1" pageScale="1" pageWidth="850" pageHeight="1100" math="0" shadow="0">
            <root>
                <mxCell id="0"/>
                <mxCell id="1" parent="0"/>
                <mxCell id="2" value="" style="verticalLabelPosition=bottom;verticalAlign=top;html=1;shape=mxgraph.basic.rect;fillColor2=none;strokeWidth=1;size=20;indent=5;fillColor=#FFFFFF;strokeColor=#36393d;" vertex="1" parent="1">
                    <mxGeometry x="90" y="140" width="680" height="830" as="geometry"/>
                </mxCell>
                <mxCell id="3" value="&lt;p style=&quot;line-height: 1.2&quot;&gt;&lt;span style=&quot;font-size: 24px&quot;&gt;&amp;nbsp; &amp;nbsp;Mathematical Loop.&lt;/span&gt;&lt;/p&gt;" style="shape=partialRectangle;whiteSpace=wrap;html=1;top=0;left=0;fillColor=#FFFFFF;align=left;fontColor=#000000;strokeColor=#000000;" vertex="1" parent="1">
                    <mxGeometry x="90" y="80" width="680" height="60" as="geometry"/>
                </mxCell>
                <mxCell id="4" value="&lt;h1 style=&quot;padding: 0px ; line-height: 1.35 ; letter-spacing: -0.02em ; margin: 24px 0px 24px 40px ; font-family: &amp;#34;roboto&amp;#34; , &amp;#34;helvetica&amp;#34; , &amp;#34;arial&amp;#34; , sans-serif ; font-weight: 400 ; color: rgba(0 , 0 , 0 , 0.87) ; font-size: 20px&quot;&gt;&lt;font style=&quot;font-size: 20px&quot;&gt;&amp;nbsp; &amp;nbsp;Enter the number you want n to stand for in the this formula:&lt;/font&gt;&lt;/h1&gt;&lt;div style=&quot;font-size: 20px&quot;&gt;&lt;br&gt;&lt;/div&gt;" style="text;whiteSpace=wrap;html=1;fontSize=24;" vertex="1" parent="1">
                    <mxGeometry x="80" y="277.5" width="570" height="50" as="geometry"/>
                </mxCell>
                <mxCell id="6" value="" style="verticalLabelPosition=bottom;verticalAlign=top;html=1;shape=mxgraph.basic.patternFillRect;fillStyle=diagGrid;step=5;fillStrokeWidth=0.2;fillStrokeColor=#dddddd;" vertex="1" parent="1">
                    <mxGeometry x="120" y="165" width="230" height="125" as="geometry"/>
                </mxCell>
                <mxCell id="7" value="&lt;font face=&quot;helvetica, arial, sans-serif&quot; color=&quot;#000000&quot;&gt;*IMAGE*&lt;/font&gt;" style="text;whiteSpace=wrap;html=1;fontSize=24;strokeWidth=22;" vertex="1" parent="1">
                    <mxGeometry x="180" y="200" width="155" height="77.5" as="geometry"/>
                </mxCell>
                <mxCell id="8" value="&lt;font style=&quot;font-size: 14px&quot; color=&quot;#000000&quot;&gt;COMMIT&lt;/font&gt;" style="labelPosition=center;verticalLabelPosition=middle;align=center;html=1;shape=mxgraph.basic.shaded_button;dx=10;fontSize=24;" vertex="1" parent="1">
                    <mxGeometry x="125" y="480" width="100" height="40" as="geometry"/>
                </mxCell>
                <mxCell id="9" value="" style="shape=partialRectangle;whiteSpace=wrap;html=1;top=0;left=0;fillColor=none;fontColor=#000000;strokeColor=#000000;" vertex="1" parent="1">
                    <mxGeometry x="125" y="450" width="235" height="10" as="geometry"/>
                </mxCell>
                <mxCell id="10" value="" style="verticalLabelPosition=bottom;verticalAlign=top;html=1;shape=mxgraph.basic.patternFillRect;fillStyle=diagGrid;step=5;fillStrokeWidth=0.2;fillStrokeColor=#dddddd;" vertex="1" parent="1">
                    <mxGeometry x="125" y="360" width="155" height="70" as="geometry"/>
                </mxCell>
                <mxCell id="11" value="&lt;font face=&quot;helvetica, arial, sans-serif&quot; color=&quot;#000000&quot;&gt;*FORMULA*&lt;/font&gt;" style="text;whiteSpace=wrap;html=1;fontSize=24;strokeWidth=22;" vertex="1" parent="1">
                    <mxGeometry x="130" y="372.5" width="155" height="77.5" as="geometry"/>
                </mxCell>
            </root>
        </mxGraphModel>
    </diagram>
</mxfile>